<svg width="56" height="38" viewBox="0 0 56 38" fill="none" xmlns="http://www.w3.org/2000/svg">
<path d="M28 11.5C29.9891 11.5 31.8968 12.2902 33.3033 13.6967C34.7098 15.1032 35.5 17.0109 35.5 19C35.5 20.9891 34.7098 22.8968 33.3033 24.3033C31.8968 25.7098 29.9891 26.5 28 26.5C26.0109 26.5 24.1032 25.7098 22.6967 24.3033C21.2902 22.8968 20.5 20.9891 20.5 19C20.5 17.0109 21.2902 15.1032 22.6967 13.6967C24.1032 12.2902 26.0109 11.5 28 11.5ZM28 0.25C40.5 0.25 51.175 8.025 55.5 19C51.175 29.975 40.5 37.75 28 37.75C15.5 37.75 4.825 29.975 0.5 19C4.825 8.025 15.5 0.25 28 0.25ZM5.95 19C7.97063 23.1258 11.1083 26.6019 15.0062 29.0331C18.9041 31.4644 23.406 32.7533 28 32.7533C32.594 32.7533 37.0959 31.4644 40.9938 29.0331C44.8917 26.6019 48.0294 23.1258 50.05 19C48.0294 14.8742 44.8917 11.3981 40.9938 8.96686C37.0959 6.5356 32.594 5.2467 28 5.2467C23.406 5.2467 18.9041 6.5356 15.0062 8.96686C11.1083 11.3981 7.97063 14.8742 5.95 19Z" fill="#57626A"/>
</svg>
